<svg width="24" height="24" viewBox="0 0 24 24" fill="none" xmlns="http://www.w3.org/2000/svg">
<path d="M17.7876 11.3306C17.7876 11.6875 17.6548 11.9946 17.356 12.2769L11.3794 18.1372C11.1553 18.3613 10.8813 18.4692 10.5576 18.4692C9.90186 18.4692 9.37891 17.9463 9.37891 17.2988C9.37891 16.9668 9.51172 16.6763 9.75244 16.4355L15.0068 11.3223L9.75244 6.22559C9.51172 5.98486 9.37891 5.68604 9.37891 5.37061C9.37891 4.71484 9.90186 4.19189 10.5576 4.19189C10.8813 4.19189 11.1553 4.30811 11.3794 4.52393L17.356 10.376C17.6465 10.6665 17.7793 10.9653 17.7876 11.3306Z" fill="white" fill-opacity="0.9"/>
</svg>
