<svg width="24" height="24" viewBox="0 0 24 24" fill="none" xmlns="http://www.w3.org/2000/svg">
<path d="M7.02344 11.6641C7.03125 11.3203 7.14844 11.0391 7.42969 10.7656L13.0547 5.25781C13.2656 5.05469 13.5234 4.94531 13.8281 4.94531C14.4375 4.94531 14.9375 5.4375 14.9375 6.05469C14.9375 6.35156 14.8125 6.63281 14.5859 6.85938L9.64062 11.6562L14.5859 16.4688C14.8125 16.6953 14.9375 16.9688 14.9375 17.2812C14.9375 17.8906 14.4375 18.3828 13.8281 18.3828C13.5234 18.3828 13.2656 18.2812 13.0547 18.0703L7.42969 12.5547C7.14844 12.2891 7.02344 12 7.02344 11.6641Z" fill="white" fill-opacity="0.9"/>
</svg>
