<svg width="17" height="17" viewBox="0 0 17 17" fill="none" xmlns="http://www.w3.org/2000/svg">
<path d="M8.49219 16.4297C4.23438 16.4297 0.726562 12.9297 0.726562 8.66406C0.726562 4.40625 4.23438 0.898438 8.49219 0.898438C12.75 0.898438 16.2656 4.40625 16.2656 8.66406C16.2656 12.9297 12.7578 16.4297 8.49219 16.4297ZM5.46094 6.79688L7.78125 2.78906C6.20312 2.96875 4.82812 3.77344 3.88281 4.94531L5.21875 7.25781C5.28906 7.09375 5.36719 6.94531 5.46094 6.79688ZM8.51562 5.09375H13.2266C12.3203 3.89844 10.9688 3.05469 9.40625 2.8125L8.07812 5.11719C8.21094 5.10156 8.35156 5.09375 8.49219 5.09375C8.5 5.09375 8.50781 5.09375 8.51562 5.09375ZM2.57812 8.66406C2.57812 9.42188 2.71875 10.1484 2.97656 10.8125H5.65625C5.53125 10.6484 5.42188 10.4766 5.32812 10.2969L3.04688 6.34375C2.74219 7.05469 2.57812 7.83594 2.57812 8.66406ZM14.4219 8.66406C14.4219 7.90625 14.2734 7.17969 14.0156 6.51562H11.3438C11.4766 6.6875 11.5938 6.88281 11.6875 7.07812L13.9453 10.9922C14.25 10.2812 14.4219 9.49219 14.4219 8.66406ZM8.49219 10.8125C9.24219 10.8125 9.90625 10.4219 10.2969 9.82812V9.82031C10.5156 9.48438 10.6406 9.08594 10.6406 8.66406C10.6406 8.34375 10.5703 8.03906 10.4453 7.76562L10.4219 7.73438H10.4297C10.0781 7.01562 9.33594 6.51562 8.49219 6.51562C7.32812 6.51562 6.34375 7.49219 6.34375 8.66406C6.34375 9.82812 7.33594 10.8125 8.49219 10.8125ZM11.5312 10.5312L9.20312 14.5469C10.7812 14.3594 12.1641 13.5625 13.1094 12.3906L11.7734 10.0703C11.7031 10.2344 11.625 10.3828 11.5312 10.5312ZM8.49219 12.2422C8.48438 12.2422 8.47656 12.2422 8.46875 12.2422L3.76562 12.2344C4.66406 13.4375 6.02344 14.2812 7.57812 14.5234L8.91406 12.2109C8.77344 12.2344 8.64062 12.2422 8.49219 12.2422Z" fill="white" fill-opacity="0.9"/>
</svg>
