<svg width="24" height="24" viewBox="0 0 24 24" fill="none" xmlns="http://www.w3.org/2000/svg">
<path d="M6.42969 13.3438C5.50781 13.3438 4.75 12.5781 4.75 11.6719C4.75 10.7422 5.50781 10 6.42969 10C7.38281 10 8.11719 10.7266 8.11719 11.6719C8.11719 12.5781 7.34375 13.3438 6.42969 13.3438ZM11.9922 13.3438C11.0781 13.3438 10.3203 12.5781 10.3203 11.6719C10.3203 10.7422 11.0781 10 11.9922 10C12.9453 10 13.6641 10.7266 13.6641 11.6719C13.6641 12.5781 12.8984 13.3438 11.9922 13.3438ZM17.5625 13.3438C16.6328 13.3438 15.875 12.5781 15.875 11.6719C15.875 10.7422 16.6328 10 17.5625 10C18.5078 10 19.2422 10.7266 19.2422 11.6719C19.2422 12.5781 18.4688 13.3438 17.5625 13.3438Z" fill="white" fill-opacity="0.9"/>
</svg>
