<svg width="24" height="24" viewBox="0 0 24 24" fill="none" xmlns="http://www.w3.org/2000/svg">
<path d="M6.27344 10.9141C5.71094 10.9141 5.28906 10.5156 5.28906 9.96094V5.98438C5.28906 5.02344 5.85156 4.46094 6.82031 4.46094H10.9062C11.4688 4.46094 11.8672 4.875 11.8672 5.4375C11.8672 6 11.4609 6.41406 10.9062 6.41406H10.4062L8.40625 6.25L9.92188 7.67188L11.8594 9.60938C12.0469 9.79688 12.1562 10.0312 12.1562 10.2969C12.1562 10.8984 11.7344 11.3203 11.1406 11.3203C10.875 11.3203 10.6328 11.2266 10.4453 11.0391L8.51562 9.08594L7.08594 7.57812L7.25 9.55469V9.96094C7.25 10.5156 6.82812 10.9141 6.27344 10.9141ZM14.0938 18.8906C13.5312 18.8906 13.1328 18.4766 13.1328 17.9062C13.1328 17.3438 13.5391 16.9375 14.0938 16.9375H14.5938L16.5938 17.0938L15.0781 15.6719L13.1406 13.7344C12.9531 13.5469 12.8438 13.3125 12.8438 13.0469C12.8438 12.4453 13.2656 12.0234 13.8594 12.0234C14.125 12.0234 14.3672 12.1172 14.5547 12.3125L16.4844 14.2578L17.9141 15.7656L17.75 13.7891V13.3906C17.75 12.8281 18.1719 12.4297 18.7266 12.4297C19.2891 12.4297 19.7109 12.8359 19.7109 13.3906V17.3594C19.7109 18.3281 19.1484 18.8906 18.1797 18.8906H14.0938Z" fill="white" fill-opacity="0.9"/>
</svg>
