<svg width="24" height="24" viewBox="0 0 24 24" fill="none" xmlns="http://www.w3.org/2000/svg">
<path d="M6.8125 16.2109C5.14062 16.2109 4.24219 15.3125 4.24219 13.6562V6.04688C4.24219 4.39844 5.14062 3.5 6.8125 3.5H14.3828C16.0469 3.5 16.9531 4.39844 16.9531 6.04688V7.14062H18.1875C19.8516 7.14062 20.7578 8.03906 20.7578 9.6875V17.2969C20.7578 18.9531 19.8516 19.8438 18.1875 19.8438H10.6172C8.94531 19.8438 8.04688 18.9531 8.04688 17.2969V16.2109H6.8125ZM6.99219 14.4062H8.04688V9.6875C8.04688 8.03125 8.94531 7.14062 10.6172 7.14062H15.1484V6.25781C15.1484 5.60938 14.8125 5.30469 14.2031 5.30469H6.99219C6.375 5.30469 6.04688 5.60938 6.04688 6.25781V13.4531C6.04688 14.1016 6.375 14.4062 6.99219 14.4062ZM10.7969 18.0469H18.0078C18.6172 18.0469 18.9531 17.7344 18.9531 17.0859V9.89844C18.9531 9.25 18.6172 8.94531 18.0078 8.94531H10.7969C10.1797 8.94531 9.85156 9.25 9.85156 9.89844V17.0859C9.85156 17.7344 10.1797 18.0469 10.7969 18.0469Z" fill="white" fill-opacity="0.9"/>
</svg>
