<svg width="24" height="24" viewBox="0 0 24 24" fill="none" xmlns="http://www.w3.org/2000/svg">
<path d="M8.14855 17.9688C7.37511 17.9688 6.98449 17.5781 6.9923 16.8125V6.52344C6.9923 5.75781 7.38293 5.36719 8.14855 5.36719H9.95324C10.7189 5.38281 11.1095 5.75781 11.1095 6.52344V16.8125C11.1095 17.5781 10.7189 17.9688 9.95324 17.9688H8.14855ZM14.047 17.9688C13.2657 17.9688 12.8907 17.5781 12.8907 16.8125V6.52344C12.8907 5.75781 13.2814 5.36719 14.047 5.36719H15.8439C16.6095 5.36719 17.0001 5.75781 17.0001 6.52344V16.8125C17.0001 17.5781 16.6095 17.9688 15.8439 17.9688H14.047Z" fill="white" fill-opacity="0.9"/>
</svg>
